<svg xmlns="http://www.w3.org/2000/svg" viewBox="0 0 15.6 14"><defs><style>.cls-1{fill:#ff6693;}</style></defs><g id="Layer_2" data-name="Layer 2"><g id="Layer_1-2" data-name="Layer 1"><path class="cls-1" d="M7.78,0h0l.79.42,2.68,4,.87-.07L13.89.55,14.75,0h0l.85,1.34h0L10,13.45,9.18,14h0L8.3,12.66h0l2.41-5.22,0-.49L7,1.47H7Z"/><path class="cls-1" d="M7.32,1.23a.53.53,0,0,1,1,0l2.88,6.33a.51.51,0,0,1-.46.72h0a.51.51,0,0,1-.46-.3L9.61,6.59a.54.54,0,0,0-.48-.31H6.5A.54.54,0,0,0,6,6.59L5.39,8a.51.51,0,0,1-.46.3h0a.51.51,0,0,1-.46-.72Zm0,2.19-.5,1.11a.53.53,0,0,0,.49.75h1a.53.53,0,0,0,.48-.75l-.5-1.11A.53.53,0,0,0,7.32,3.42Z"/><path class="cls-1" d="M8.6,1.47,4.93,7l0,.49L7.3,12.66h0L6.45,14h0l-.86-.55L0,1.34H0L.86,0h0l.85.55L3.47,4.37l.87.07L7,.42,7.81,0h0L8.6,1.47Z"/><path class="cls-1" d="M5.21,8.48c.3-.78.68-2,.68-2L4.88,8Z"/><polygon class="cls-1" points="10.14 7.75 10.52 8.59 10.69 7.91 10.14 7.75"/></g></g></svg>