<svg xmlns="http://www.w3.org/2000/svg" viewBox="0 0 15.91 14.2"><defs><style>.cls-1{fill:#ff6693;}</style></defs><g id="Layer_2" data-name="Layer 2"><g id="Layer_1-2" data-name="Layer 1"><path class="cls-1" d="M8,0H8l.8.43,2.73,4.08.87-.07L14.17.56,15,0h0l.87,1.36h0L10.25,13.65l-.86.55h0L8.5,12.85h0l2.44-5.31,0-.49L7.18,1.49h0Z"/><path class="cls-1" d="M8.44.76l3.05,6.72a.53.53,0,0,1-.48.75h0a.52.52,0,0,1-.48-.31L9.85,6.44a.55.55,0,0,0-.49-.32H6.56a.55.55,0,0,0-.49.32L5.41,7.91a.53.53,0,0,1-.49.32h0a.53.53,0,0,1-.48-.75l3-6.72A.53.53,0,0,1,8.44.76Zm-1,2.57L7,4.44a.53.53,0,0,0,.49.75h1a.53.53,0,0,0,.49-.75l-.5-1.11A.53.53,0,0,0,7.47,3.33Z"/><path class="cls-1" d="M8.73,1.49h0L5,7.05l0,.49,2.45,5.31h0L6.54,14.2h0l-.87-.55L0,1.36H0L.87,0h0l.87.56L3.53,4.44l.87.07L7.13.43,7.92,0h0Z"/></g></g></svg>