<svg xmlns="http://www.w3.org/2000/svg" viewBox="0 0 60.4 14.78"><defs><style>.cls-1{fill:#ff6693;}.cls-2{font-size:12px;font-family:MyriadPro-Regular, Myriad Pro;}.cls-3{letter-spacing:0em;}.cls-4{letter-spacing:-0.01em;}.cls-5{letter-spacing:-0.01em;}.cls-6{letter-spacing:-0.01em;}</style></defs><g id="Layer_2" data-name="Layer 2"><g id="Layer_1-2" data-name="Layer 1"><path class="cls-1" d="M8,.58H8l.8.42,2.73,4.09L12.38,5l1.79-3.89L15,.58h0l.87,1.35h0L10.25,14.22l-.86.56h0L8.5,13.42h0l2.44-5.3,0-.49L7.18,2.07h0Z"/><path class="cls-1" d="M8.44,1.33l3.05,6.72a.53.53,0,0,1-.48.76h0a.53.53,0,0,1-.48-.32L9.85,7a.54.54,0,0,0-.49-.31H6.56A.53.53,0,0,0,6.07,7L5.41,8.49a.55.55,0,0,1-.49.32h0a.53.53,0,0,1-.48-.75l3-6.72A.53.53,0,0,1,8.44,1.33Zm-1,2.58L7,5a.53.53,0,0,0,.49.75h1A.53.53,0,0,0,8.94,5l-.5-1.1A.53.53,0,0,0,7.47,3.91Z"/><path class="cls-1" d="M8.73,2.06h0L5,7.63l0,.49,2.45,5.3h0l-.87,1.36h0l-.87-.56L0,1.93H0L.87.58h0l.87.55L3.53,5l.87.07L7.13,1,7.92.58h0Z"/><text class="cls-2" transform="translate(18.16 10.04)"><tspan class="cls-3">y</tspan><tspan class="cls-4" x="5.6" y="0">a</tspan><tspan x="11.29" y="0">y</tspan><tspan class="cls-5" x="16.94" y="0">f</tspan><tspan x="20.29" y="0">e</tspan><tspan class="cls-6" x="26.3" y="0">t</tspan><tspan x="30.2" y="0">ch</tspan></text></g></g></svg>