<svg xmlns="http://www.w3.org/2000/svg" viewBox="0 0 59.5 14"><defs><style>.cls-1{fill:#ff6693;}</style></defs><g id="Layer_2" data-name="Layer 2"><g id="Layer_1-2" data-name="Layer 1"><path class="cls-1" d="M8,0H8l.79.42,2.68,4,.87-.07L14.07.55,14.93,0h0l.85,1.34h0L10.21,13.45,9.35,14h0l-.85-1.34h0l2.41-5.22,0-.49L7.18,1.47h0Z"/><path class="cls-1" d="M7.41,1a.53.53,0,0,1,1,0l2.88,6.33A.51.51,0,0,1,10.8,8h0a.51.51,0,0,1-.46-.3L9.7,6.31A.54.54,0,0,0,9.21,6H6.58a.52.52,0,0,0-.48.31L5.48,7.7A.53.53,0,0,1,5,8H5a.51.51,0,0,1-.46-.71Zm0,2.18L6.91,4.25A.53.53,0,0,0,7.39,5h1a.53.53,0,0,0,.49-.75L8.37,3.14A.53.53,0,0,0,7.4,3.14Z"/><path class="cls-1" d="M8.6,1.47,4.93,7l0,.49L7.3,12.66h0L6.45,14h0l-.86-.55L0,1.34H0L.86,0h0l.85.55L3.47,4.37l.87.07L7,.42,7.81,0h0L8.6,1.47Z"/><path d="M19.36,3.2l1.27,3.43c.13.38.28.83.37,1.18h0c.11-.35.23-.79.38-1.21l1.15-3.4h1.11L22.08,7.33c-.76,2-1.27,3-2,3.64a2.93,2.93,0,0,1-1.3.68l-.26-.89a2.77,2.77,0,0,0,.92-.51,3.22,3.22,0,0,0,.89-1.18.76.76,0,0,0,.09-.25,1,1,0,0,0-.08-.28L18.21,3.2Z"/><path d="M27.79,9l-.08-.73h0a2.16,2.16,0,0,1-1.77.86,1.66,1.66,0,0,1-1.78-1.67c0-1.4,1.25-2.17,3.49-2.15V5.19a1.2,1.2,0,0,0-1.32-1.35,2.93,2.93,0,0,0-1.51.43l-.24-.69a3.64,3.64,0,0,1,1.91-.52c1.77,0,2.21,1.21,2.21,2.38V7.61A8.47,8.47,0,0,0,28.75,9Zm-.15-3c-1.15,0-2.46.18-2.46,1.3a.93.93,0,0,0,1,1,1.45,1.45,0,0,0,1.41-1A1.35,1.35,0,0,0,27.64,7Z"/><path d="M30.65,3.2l1.27,3.43c.13.38.28.83.37,1.18h0c.1-.35.22-.79.37-1.21l1.15-3.4H35L33.37,7.33c-.75,2-1.27,3-2,3.64a2.9,2.9,0,0,1-1.29.68l-.27-.89a2.8,2.8,0,0,0,.93-.51,3.32,3.32,0,0,0,.88-1.18.76.76,0,0,0,.09-.25,1,1,0,0,0-.08-.28L29.5,3.2Z"/><path d="M36,9V4h-.82V3.2H36V2.92a2.75,2.75,0,0,1,.67-2A2,2,0,0,1,38.11.35a2.52,2.52,0,0,1,.9.17l-.14.82a1.46,1.46,0,0,0-.67-.14c-.9,0-1.13.8-1.13,1.68V3.2h1.4V4h-1.4V9Z"/><path d="M39.85,6.29a1.86,1.86,0,0,0,2,2A3.76,3.76,0,0,0,43.45,8l.18.76a4.67,4.67,0,0,1-1.93.36,2.69,2.69,0,0,1-2.85-2.93c0-1.75,1-3.13,2.72-3.13A2.47,2.47,0,0,1,44,5.8a4.35,4.35,0,0,1,0,.49ZM43,5.53a1.5,1.5,0,0,0-1.47-1.71,1.74,1.74,0,0,0-1.61,1.71Z"/><path d="M46.55,1.53V3.2h1.51V4H46.55V7.13c0,.72.2,1.13.79,1.13A2.08,2.08,0,0,0,48,8.18L48,9a2.69,2.69,0,0,1-.94.14,1.5,1.5,0,0,1-1.14-.44,2.17,2.17,0,0,1-.4-1.51V4h-.9V3.2h.9V1.8Z"/><path d="M53.32,8.78a3.81,3.81,0,0,1-1.67.34,2.76,2.76,0,0,1-2.89-3,2.94,2.94,0,0,1,3.12-3.08,3.44,3.44,0,0,1,1.46.3l-.24.81a2.5,2.5,0,0,0-1.22-.27,2,2,0,0,0-2.05,2.19,2,2,0,0,0,2,2.17A3,3,0,0,0,53.14,8Z"/><path d="M54.55.48h1.06V4.11h0a2,2,0,0,1,.76-.75,2.16,2.16,0,0,1,1.08-.3c.78,0,2,.48,2,2.49V9H58.44V5.67c0-.94-.35-1.73-1.34-1.73A1.52,1.52,0,0,0,55.68,5a1.31,1.31,0,0,0-.07.51V9H54.55Z"/></g></g></svg>